<svg width="12" height="12" viewBox="0 0 12 12" fill="none" xmlns="http://www.w3.org/2000/svg">
<path d="M11.2804 5.10378C10.9761 1.9905 8.20144 -0.283842 5.08896 0.0287233C1.98807 0.340128 -0.276001 3.10224 0.0272359 6.20397C0.330472 9.30564 3.08663 11.5768 6.18916 11.2821C9.30318 10.9859 11.5848 8.21706 11.2804 5.10378ZM7.06605 1.3339C7.13508 1.33371 7.18663 1.34775 7.25085 1.36521L7.26475 1.36899C7.28983 1.49499 7.2647 1.55355 7.19879 1.66081C7.08343 1.84855 6.95505 2.0283 6.82662 2.20808C6.59996 2.5254 6.3733 2.84281 6.21799 3.20435C5.88126 3.98821 5.95974 4.90253 6.03903 5.82642C6.10843 6.635 6.17844 7.45091 5.97128 8.1931C5.72205 9.08599 5.09639 9.67004 4.31302 10.1056C4.26957 10.1129 4.22166 10.1092 4.17561 10.1057C4.16596 10.1049 4.15642 10.1042 4.14698 10.1036C4.14103 10.1032 4.13514 10.1028 4.12929 10.1025L4.12175 10.0882C4.07707 10.0033 4.07441 9.99813 4.10672 9.90151C4.14868 9.77625 4.23213 9.64799 4.31076 9.52715C4.34082 9.48099 4.37015 9.43592 4.39621 9.39251C4.66852 8.93882 4.93549 8.44868 5.01899 7.9192C5.12332 7.25799 5.06777 6.57758 5.01222 5.89716C4.94175 5.03383 4.87127 4.1701 5.12748 3.34599C5.4422 2.33341 6.17906 1.80524 7.06605 1.3339Z" fill="#0B0803"/>
</svg>
