<svg width="112" height="48" viewBox="0 0 112 48" fill="none" xmlns="http://www.w3.org/2000/svg">
<g clip-path="url(#clip0_8239_70978)">
<g clip-path="url(#clip1_8239_70978)">
<path d="M47.7857 13.1929C47.3799 9.04184 43.6804 6.00939 39.5304 6.42615C35.3959 6.84135 32.3771 10.5242 32.7814 14.6598C33.1857 18.7954 36.8606 21.8236 40.9973 21.4307C45.1494 21.0357 48.1915 17.3439 47.7857 13.1929ZM42.1665 8.16639C42.2586 8.16613 42.3273 8.18484 42.4129 8.20812L42.4315 8.21317C42.4649 8.38117 42.4314 8.45925 42.3435 8.60226C42.1897 8.85258 42.0185 9.09224 41.8473 9.33195C41.5451 9.75505 41.2429 10.1783 41.0358 10.6603C40.5868 11.7055 40.6914 12.9246 40.7972 14.1564C40.8897 15.2345 40.983 16.3224 40.7068 17.312C40.3745 18.5025 39.5403 19.2812 38.4958 19.862C38.4379 19.8717 38.374 19.8668 38.3126 19.8621C38.2997 19.8611 38.287 19.8601 38.2744 19.8593C38.2665 19.8587 38.2586 19.8583 38.2508 19.8579L38.2408 19.8388C38.1812 19.7255 38.1777 19.7187 38.2207 19.5899C38.2767 19.4228 38.388 19.2518 38.4928 19.0907C38.5329 19.0292 38.572 18.9691 38.6067 18.9112C38.9698 18.3063 39.3258 17.6528 39.4371 16.9468C39.5762 16.0652 39.5021 15.1579 39.4281 14.2507C39.3341 13.0996 39.2401 11.948 39.5818 10.8492C40.0014 9.49906 40.9839 8.79484 42.1665 8.16639Z" fill="#0B0803"/>
<path d="M65.5341 35.0922C65.0634 31.0626 61.4156 28.1774 57.386 28.6466C53.3546 29.1158 50.4672 32.7651 50.938 36.7967C51.4088 40.8284 55.0594 43.7143 59.0906 43.2423C63.1201 42.7703 66.0047 39.1217 65.5341 35.0922ZM57.3973 30.3357C58.3721 30.2636 59.2839 30.501 60.0703 31.0858C61.3428 32.0319 61.992 33.5956 62.207 35.1265C62.4346 36.7421 62.4121 38.9859 61.3596 40.3389C60.7853 41.0763 60.0592 41.376 59.1599 41.4859C58.2019 41.5784 57.2432 41.3214 56.4603 40.7632C55.2225 39.8703 54.5872 38.4032 54.3567 36.9333C54.0941 35.2589 54.1038 32.9156 55.1886 31.5031C55.7658 30.7517 56.4869 30.4527 57.3973 30.3357Z" fill="#0B0803"/>
<path d="M23.6746 0.367412C24.982 0.195978 26.4618 0.330439 27.7337 0.651248C28.5073 0.846352 29.2792 1.1117 30.0701 1.22297C30.5248 1.28691 31.0018 1.2818 31.4607 1.28985C31.535 2.56307 31.7806 5.61401 31.6335 6.73547C31.3992 6.78092 31.2192 6.76818 30.9836 6.7361C30.7423 6.4571 30.6288 5.83264 30.4838 5.47087C29.9521 4.14414 28.9006 3.12471 27.5822 2.58394C25.9299 1.90626 23.9573 1.99337 22.3288 2.69683C20.6185 3.43565 19.225 4.91434 18.5459 6.64633C17.4939 9.32905 17.5012 12.7702 18.6815 15.411C19.4993 17.2405 20.954 18.8499 22.8576 19.5642C24.6748 20.2462 26.6496 20.0446 28.3902 19.2469C29.1675 18.8504 29.8862 18.2608 30.3485 17.5135C30.6101 17.0907 30.8024 16.287 31.2173 16.0141L31.3328 16.0599C31.7787 16.6232 31.9446 18.3847 32.0911 19.1425C30.4135 20.6211 28.3895 21.6016 26.1648 21.8943C23.2532 22.2767 20.2146 21.6891 17.862 19.8736C15.7204 18.221 14.4196 15.6242 14.098 12.9632C13.7242 9.87087 14.407 6.75004 16.3643 4.28876C18.1679 2.02083 20.8207 0.694874 23.6746 0.367412Z" fill="#0B0803"/>
<path d="M78.3528 7.71233C77.5734 7.51828 76.6301 7.41352 75.831 7.5126C73.9661 7.69581 72.3715 8.41481 71.16 9.87711C69.8175 11.5153 69.1803 13.619 69.3868 15.7268C69.5724 17.5236 70.3987 19.3101 71.8323 20.4467C73.338 21.6415 75.4655 21.9783 77.3339 21.757C78.9928 21.561 80.4635 20.8445 81.4922 19.5052C81.9628 18.8932 82.3046 18.2015 82.5742 17.4809C82.5412 17.4497 82.5083 17.4174 82.4752 17.3849C82.3163 17.2285 82.1522 17.0672 81.9383 17.0023C81.9194 17.0109 81.9031 17.0178 81.8888 17.0238C81.8237 17.0512 81.7975 17.0623 81.7436 17.1441C80.8564 18.4504 79.8396 19.3151 78.2512 19.612C77.0131 19.8435 75.7827 19.6305 74.7441 18.9018C73.9178 18.3219 73.2658 17.4659 72.8841 16.5345C74.7834 15.4084 76.8478 14.2686 79.0328 13.821C79.4653 13.7324 79.9062 13.6827 80.3458 13.6331C80.8081 13.581 81.2688 13.529 81.7164 13.4322C82.0168 13.3673 82.2325 13.3062 82.3347 12.9878C82.5903 12.189 82.1869 10.8839 81.7843 10.1955C81.0483 8.93576 79.7555 8.06137 78.3528 7.71233ZM76.4207 8.98332C76.7757 8.98542 77.156 9.01056 77.4977 9.10496C78.0762 9.26449 78.6 9.60721 78.8823 10.149C79.0776 10.524 79.2303 11.1251 79.0769 11.5354C78.948 11.8798 78.6694 12.1151 78.3612 12.2972C77.9766 12.5239 77.516 12.6697 77.0723 12.8101C76.9215 12.8578 76.7726 12.9049 76.6294 12.9544C75.8541 13.2222 75.0901 13.5143 74.3513 13.8717C74.1824 13.9469 73.9689 14.0817 73.7414 14.2254C73.3142 14.4952 72.8379 14.796 72.5158 14.7908C72.3435 14.6467 72.2994 14.527 72.2812 14.3104C72.1615 12.8738 72.7399 11.2396 73.6692 10.1535C74.3498 9.35854 75.4179 9.06462 76.4207 8.98332Z" fill="#0B0803"/>
<path d="M92.3204 7.57522C91.7685 7.49959 91.2097 7.47851 90.6537 7.51227C88.7614 7.66661 87.1612 8.35684 85.9231 9.82998C84.561 11.4613 83.907 13.5695 84.1065 15.6856C84.2732 17.4382 85.0919 19.2307 86.4722 20.3561C87.9582 21.568 90.1753 21.9825 92.0458 21.7704C93.7105 21.582 95.2063 20.7997 96.2455 19.4783C96.7239 18.8649 97.0986 18.177 97.3541 17.4421C97.3218 17.4141 97.2881 17.3833 97.2531 17.3514C97.0799 17.1935 96.8762 17.0078 96.6594 16.9905C95.7687 18.3321 94.7021 19.2762 93.0858 19.602C91.868 19.8477 90.6859 19.6685 89.6403 18.9745C88.7432 18.3789 88.0906 17.5115 87.6255 16.5505C89.6788 15.1536 92.2049 14.0836 94.6461 13.632C94.9488 13.5759 95.2564 13.5522 95.564 13.5284C95.8185 13.5087 96.0729 13.4891 96.3247 13.4511C96.6525 13.4017 96.9851 13.3267 97.0586 12.952C97.2652 11.8954 96.8485 10.6244 96.2245 9.77487C95.2834 8.49318 93.8736 7.79134 92.3204 7.57522ZM90.5171 9.03465C91.1536 8.98424 91.7734 8.95286 92.3868 9.17731C92.9751 9.39237 93.4493 9.81668 93.7048 10.3917C93.8736 10.7702 93.9471 11.194 93.7874 11.5885C93.6964 11.8111 93.5297 12.0133 93.3365 12.1548C92.8739 12.4927 91.7317 12.8914 90.7381 13.2382C90.2484 13.4091 89.7948 13.5675 89.4764 13.6997C88.9657 13.9274 88.4735 14.2036 87.9823 14.4792C87.7098 14.6322 87.4375 14.785 87.1626 14.9292C86.9322 13.5221 87.0765 12.088 87.8426 10.8546C88.4757 9.83643 89.3679 9.2979 90.5171 9.03465Z" fill="#0B0803"/>
<path d="M43.3594 24.456C44.8654 24.4476 49.0965 24.2599 50.2378 24.561C50.3334 24.692 50.3244 24.6941 50.3127 24.8573C50.0488 25.302 49.4858 25.4805 49.0953 25.7992C48.8698 25.9827 48.6663 26.2446 48.5983 26.5317C48.3463 27.5947 48.4457 28.8238 48.4448 29.9155L48.4149 34.5263C48.407 35.6265 48.4413 36.7512 48.3124 37.8437C48.128 39.4082 47.4375 40.862 46.1735 41.8361C44.5979 43.0511 42.3984 43.3214 40.4727 43.0602C38.7861 42.8319 37.1406 42.1015 36.0918 40.717C35.1404 39.4614 34.8994 37.9949 35.1013 36.4599C35.1546 36.1889 35.2225 35.9269 35.3197 35.6678C35.6786 34.7112 36.3807 33.9248 37.3277 33.5186C38.3278 33.09 39.589 33.0585 40.594 33.4913C41.083 33.7014 41.3912 34.0634 41.5709 34.5642C41.681 34.8702 41.717 35.1321 41.5766 35.4297C41.1713 35.8128 40.2596 35.2995 39.6932 35.4584C39.1705 35.6048 38.7708 35.9711 38.5206 36.4459C38.0861 37.2701 38.0758 38.3472 38.3864 39.2142C38.6632 39.9873 39.2905 40.6113 40.0294 40.953C40.9066 41.3585 42.14 41.46 43.0565 41.119C43.7664 40.855 44.2879 40.2905 44.5742 39.5972C44.8209 38.9999 44.9366 38.3129 44.9947 37.6721C45.1257 36.2281 45.2881 27.5065 44.97 26.5632C44.6344 25.5681 43.4903 25.5387 43.2281 24.9329C43.2282 24.7865 43.2314 24.685 43.302 24.5568C43.3206 24.5225 43.3403 24.4896 43.3594 24.456Z" fill="#0B0803"/>
<path d="M74.4768 40.6134C75.119 39.0237 75.6736 37.3857 76.2654 35.7757C76.7269 34.5222 77.2969 33.2252 77.5798 31.9205C77.6401 31.6425 77.6667 31.3673 77.5889 31.09C77.3515 30.2426 76.2584 30.3105 76.0112 29.6558C76.0455 29.5122 76.0252 29.4499 76.1624 29.3616C76.4152 29.1999 80.8783 29.1831 81.4252 29.2524C81.6073 29.2755 81.7368 29.3161 81.8566 29.4625C81.8692 29.7769 81.7929 29.9205 81.5099 30.0808C81.0561 30.3372 80.4784 30.4681 80.138 30.8897C79.6023 31.5536 77.5847 37.2344 77.0868 38.5258L75.4229 42.8425C75.0041 43.9265 74.612 45.1051 73.9887 46.0912C73.6112 46.6878 73.1028 47.2656 72.4865 47.6206C71.5873 48.1374 70.4473 48.2327 69.4535 47.9533C68.6811 47.7355 67.9745 47.2572 67.6047 46.5296C67.312 45.9539 67.2399 45.1878 67.4549 44.5743C67.6152 44.117 67.9857 43.7381 68.4269 43.5414C68.7126 43.4146 69.1797 43.304 69.4752 43.4643C70.1783 43.8467 69.7203 45.1093 69.99 45.783C70.081 46.0092 70.214 46.1689 70.4451 46.262C70.8212 46.4133 71.4739 46.206 71.8128 46.0414C72.9585 45.4826 73.4396 43.6814 73.8206 42.5693C73.3395 42.5784 72.7835 42.6373 72.3094 42.5546C72.2358 42.542 72.1434 42.5224 72.0776 42.4839C71.9207 42.3929 71.8198 42.2276 71.7386 42.0693C71.3647 41.3403 71.1111 40.4929 70.8191 39.7254L69.0004 34.9395C68.6426 33.999 68.3176 33.0186 67.8785 32.1138C67.5508 31.4394 67.1138 30.7503 66.4401 30.3778C66.1061 30.1936 65.6663 30.1957 65.4401 29.861C65.4009 29.6327 65.4415 29.494 65.5122 29.2755C66.7181 29.2265 71.5663 29.1004 72.4578 29.3483C72.5068 29.5185 72.5153 29.7538 72.448 29.9212C72.3416 30.1859 71.8296 30.2671 71.5943 30.3617C71.3401 30.4639 71.1202 30.618 71.0215 30.8848C70.913 31.1796 71.0579 31.6537 71.1427 31.9528C71.5117 33.2602 72.107 34.5544 72.5972 35.8268C73.21 37.4165 73.7625 39.0664 74.4768 40.6134Z" fill="#0B0803"/>
<path d="M65.9412 1.55481C67.012 1.499 68.0281 1.63577 68.963 2.19615C69.6458 2.60513 70.2243 3.22062 70.3965 4.01686C70.4904 4.44909 70.461 4.90681 70.2096 5.28224C69.9364 5.68989 69.3846 6.00762 68.9 6.06833C68.6087 6.10475 68.2669 6.06504 68.0337 5.87659C67.4924 5.43918 67.7445 4.66121 67.6416 4.06274C67.5855 3.7406 67.4182 3.46951 67.1394 3.29493C66.7178 3.03042 66.0589 2.94302 65.5806 3.07573C65.1625 3.19156 64.8613 3.48723 64.6688 3.8684C64.056 5.07845 64.3949 6.66002 64.7738 7.88373C66.0582 7.91559 67.3481 7.88968 68.6332 7.88849C68.6367 8.43368 68.6269 8.96976 68.5856 9.51347C67.3446 9.51214 66.1009 9.4933 64.8613 9.54064C64.7822 10.8158 64.813 12.1113 64.8053 13.3894C64.7934 15.3021 64.605 17.4137 65.0434 19.275C65.11 19.4474 65.1835 19.6098 65.2731 19.772C65.6597 20.4754 65.8978 20.4002 66.5855 20.6268C66.8201 20.7038 66.9559 20.7991 67.0582 21.0176C67.0491 21.2024 67.0204 21.2725 66.9111 21.4216C66.8502 21.4601 66.8257 21.4826 66.7459 21.4973C66.4966 21.5449 60.509 21.519 60.17 21.4629C59.9375 21.4237 59.7736 21.3726 59.6273 21.1751C59.7239 20.61 60.3528 20.6499 60.731 20.2843C61.1645 19.8656 61.3822 19.3041 61.5027 18.7242C61.7646 17.4616 61.6638 16.0313 61.6589 14.742L61.6344 9.52363L59.1854 9.51452C59.1357 8.97557 59.1322 8.43151 59.1182 7.89066L61.5566 7.8894C61.4369 7.52461 61.3178 7.14568 61.2653 6.76436C61.1098 5.63751 61.3717 4.4923 62.0643 3.57925C62.9852 2.36555 64.4664 1.7455 65.9412 1.55481Z" fill="#0B0803"/>
<path d="M55.8066 1.55623C56.7932 1.47317 57.7408 1.5451 58.6259 2.02985C59.3332 2.41725 59.9376 3.05628 60.1547 3.84713C60.2891 4.3372 60.3039 4.95802 60.0265 5.40453C59.8305 5.72072 59.5027 5.90574 59.1428 5.97318C58.815 6.03467 58.3815 6.03389 58.1077 5.81421C57.5895 5.3983 57.9361 4.59862 57.8206 4.04777C57.7513 3.71603 57.4837 3.43465 57.1931 3.27555C56.7358 3.02477 56.0768 2.9943 55.5822 3.14305C55.1716 3.26651 54.8614 3.53508 54.673 3.91975C54.1269 5.0347 54.5411 6.74295 54.9158 7.85251C56.1455 7.92541 57.4025 7.86876 58.6364 7.87513C58.6672 8.42529 58.6392 8.96431 58.6063 9.51384C57.3542 9.51104 56.1013 9.51552 54.849 9.52714C54.7914 11.0929 54.7683 12.6598 54.7795 14.2267C54.7752 15.8408 54.6145 17.6542 55.088 19.2111C55.6081 20.3509 56.6882 20.543 56.9431 21.152C56.9039 21.2633 56.92 21.2822 56.81 21.3473C56.4151 21.5833 50.4187 21.5371 49.8827 21.4097C49.8621 21.3368 49.8345 21.2528 49.8319 21.1772C49.8157 20.7017 50.5653 20.502 50.8533 20.2178C51.2543 19.822 51.4526 19.0887 51.5457 18.5426C51.7549 17.3153 51.6885 15.9627 51.6873 14.7193L51.6767 9.52434L49.2343 9.51398C49.1973 8.97187 49.1978 8.43271 49.2001 7.88956C49.9792 7.8981 50.7583 7.89719 51.5373 7.88689C51.4167 7.4901 51.2896 7.0917 51.2284 6.68063C51.0619 5.56259 51.3049 4.45807 51.9885 3.54922C52.9068 2.32817 54.3363 1.76247 55.8066 1.55623Z" fill="#0B0803"/>
</g>
</g>
<defs>
<clipPath id="clip0_8239_70978">
<rect width="112" height="48" fill="white"/>
</clipPath>
<clipPath id="clip1_8239_70978">
<rect width="83.3545" height="47.8147" fill="white" transform="translate(14 0.29248)"/>
</clipPath>
</defs>
</svg>
